# xmcd
#
# Track frame offsets: 
#        150
#        11187
#        25555
#        37575
#        52955
#        66670
#        80367
#        92307
#        104517
#        117885
#        128855
#        141615
#        161270
#        176270
#        188912
#        205795
#        218520
#        233615
#        253962
#        266802
#
# Disc length: 3840 seconds
#
# Revision: 3
# Processed by: cddbd v1.4PL0 Copyright (c) Steve Scherf et al.
# Submitted via: ExactAudioCopy v0.90b2
#
DISCID=0c0efe14
DTITLE=Conway Twitty - 20 Greatest Hits
DYEAR=1900
DGENRE=Country
TTITLE0=Hello Darlin'
TTITLE1=Fifteen Years Ago
TTITLE2=I Can't See Me Without You
TTITLE3=Last Date (Lost Her Love On Our Last Date)
TTITLE4=Baby's Gone
TTITLE5=You've Never Been This Far Before
TTITLE6=I'm Not Through Loving You Yet
TTITLE7=Linda On My Mind
TTITLE8=There's A Honky-Tonk Angel (Who'll Take Me Back In)
TTITLE9=I Can't Believe She Gives It All To Me
TTITLE10=I See The Want-To In Your Eyes
TTITLE11=Don't Cry Joni
TTITLE12=Georgia Keeps Pulling On My Ring
TTITLE13=I've Already Loved You In My Mind
TTITLE14=Don't Take It Away
TTITLE15=I May Never Get To Heaven
TTITLE16=I'd Love To Lay You Down
TTITLE17=Rest Your Love On Me
TTITLE18=Tight Fittin' Jeans
TTITLE19=Red Neckin' Love Makin' Night
EXTD=
EXTT0=
EXTT1=
EXTT2=
EXTT3=
EXTT4=
EXTT5=
EXTT6=
EXTT7=
EXTT8=
EXTT9=
EXTT10=
EXTT11=
EXTT12=
EXTT13=
EXTT14=
EXTT15=
EXTT16=
EXTT17=
EXTT18=
EXTT19=
PLAYORDER=
